HIERARCHY
ROOT Hips
{
	OFFSET 0.000000 0.000000 0.000000
	CHANNELS 6 Xposition Yposition Zposition Zrotation Yrotation Xrotation
	JOINT LeftUpLeg
	{
		OFFSET 0.103459 1.857827 10.548521
		CHANNELS 6 Xposition Yposition Zposition Zrotation Yrotation Xrotation
		JOINT LeftLeg
		{
			OFFSET 43.499979 0.000107 0.000090
			CHANNELS 6 Xposition Yposition Zposition Zrotation Yrotation Xrotation
			JOINT LeftFoot
			{
				OFFSET 42.372168 0.000034 0.000010
				CHANNELS 6 Xposition Yposition Zposition Zrotation Yrotation Xrotation
				JOINT LeftToe
				{
					OFFSET 17.299924 -0.000089 0.000018
					CHANNELS 6 Xposition Yposition Zposition Zrotation Yrotation Xrotation
					End Site
					{
						OFFSET 6.000000 0.000000 0.000000
					}
				}
			}
		}
	}
	JOINT RightUpLeg
	{
		OFFSET 0.103456 1.857863 -10.548456
		CHANNELS 6 Xposition Yposition Zposition Zrotation Yrotation Xrotation
		JOINT RightLeg
		{
			OFFSET 43.500042 -0.000002 0.000029
			CHANNELS 6 Xposition Yposition Zposition Zrotation Yrotation Xrotation
			JOINT RightFoot
			{
				OFFSET 42.372205 0.000033 0.000070
				CHANNELS 6 Xposition Yposition Zposition Zrotation Yrotation Xrotation
				JOINT RightToe
				{
					OFFSET 17.299951 -0.000065 0.000070
					CHANNELS 6 Xposition Yposition Zposition Zrotation Yrotation Xrotation
					End Site
					{
						OFFSET 6.000000 0.000000 0.000000
					}
				}
			}
		}
	}
	JOINT Spine
	{
		OFFSET 6.901935 -2.603664 0.000033
		CHANNELS 6 Xposition Yposition Zposition Zrotation Yrotation Xrotation
		JOINT Spine1
		{
			OFFSET 12.588142 0.000010 -0.000051
			CHANNELS 6 Xposition Yposition Zposition Zrotation Yrotation Xrotation
			JOINT Spine2
			{
				OFFSET 12.343166 -0.000098 0.000026
				CHANNELS 6 Xposition Yposition Zposition Zrotation Yrotation Xrotation
				JOINT Neck
				{
					OFFSET 25.832894 0.000061 0.000061
					CHANNELS 6 Xposition Yposition Zposition Zrotation Yrotation Xrotation
					JOINT Head
					{
						OFFSET 11.766657 -0.000023 -0.000040
						CHANNELS 6 Xposition Yposition Zposition Zrotation Yrotation Xrotation
						End Site
						{
							OFFSET 12.000000 0.000000 0.000000
						}
					}
				}
				JOINT LeftShoulder
				{
					OFFSET 19.745926 -1.480308 6.000100
					CHANNELS 6 Xposition Yposition Zposition Zrotation Yrotation Xrotation
					JOINT LeftArm
					{
						OFFSET 11.284141 -0.000067 -0.000035
						CHANNELS 6 Xposition Yposition Zposition Zrotation Yrotation Xrotation
						JOINT LeftForeArm
						{
							OFFSET 33.000033 0.000026 -0.000005
							CHANNELS 6 Xposition Yposition Zposition Zrotation Yrotation Xrotation
							JOINT LeftHand
							{
								OFFSET 25.200056 0.000059 -0.000020
								CHANNELS 6 Xposition Yposition Zposition Zrotation Yrotation Xrotation
								End Site
								{
									OFFSET 9.000000 0.000000 0.000000
								}
							}
						}
					}
				}
				JOINT RightShoulder
				{
					OFFSET 19.746108 -1.480276 -5.999995
					CHANNELS 6 Xposition Yposition Zposition Zrotation Yrotation Xrotation
					JOINT RightArm
					{
						OFFSET 11.284248 -0.000015 -0.000063
						CHANNELS 6 Xposition Yposition Zposition Zrotation Yrotation Xrotation
						JOINT RightForeArm
						{
							OFFSET 33.000071 0.000058 0.000097
							CHANNELS 6 Xposition Yposition Zposition Zrotation Yrotation Xrotation
							JOINT RightHand
							{
								OFFSET 25.199705 0.000114 0.000349
								CHANNELS 6 Xposition Yposition Zposition Zrotation Yrotation Xrotation
								End Site
								{
									OFFSET 9.000000 0.000000 0.000000
								}
							}
						}
					}
				}
			}
		}
	}
}
MOTION
Frames: 9
Frame Time: 0.0333333
0.0000 92.0252 -0.0000 89.6203 0.6521 92.2224 0.1035 1.8578 10.5485 169.5334 -3.5895 173.0370 43.5000 0.0001 0.0001 -25.8789 2.6253 2.3206 42.3722 0.0000 0.0000 80.1027 -2.3014 -2.9277 17.2999 -0.0001 0.0000 21.4546 0.0031 -0.0001 0.1035 1.8579 -10.5485 171.8067 2.5185 -176.7652 43.5000 -0.0000 0.0000 -24.5861 3.8791 5.8760 42.3722 0.0000 0.0001 81.8024 -3.5452 3.4348 17.3000 -0.0001 0.0001 21.4546 -0.0031 0.0000 6.9019 -2.6037 0.0000 5.4772 0.2412 0.3966 12.5881 0.0000 -0.0001 0.9434 0.4744 0.7952 12.3432 -0.0001 0.0000 0.6253 0.4793 0.7923 25.8329 0.0001 0.0001 0.9662 6.3279 -2.4273 11.7667 -0.0000 -0.0000 14.9072 -14.1441 -0.3639 19.7459 -1.4803 6.0001 -64.7437 -84.2445 -117.5602 11.2841 -0.0001 -0.0000 -80.3854 47.4663 -88.0678 33.0000 0.0000 -0.0000 -17.1704 -9.3610 -2.2473 25.2001 0.0001 -0.0000 12.8595 1.5532 18.3587 19.7461 -1.4803 -6.0000 -82.6696 80.1309 99.9540 11.2842 -0.0000 -0.0001 -83.4964 -52.9792 93.6598 33.0001 0.0001 0.0001 -24.4155 13.7592 1.0442 25.1997 0.0001 0.0003 12.2982 10.3537 -7.4738
0.0000 91.1399 -0.0000 89.6203 0.9755 92.2202 0.1035 1.8578 10.5485 168.2947 -3.5406 173.0358 43.5000 0.0001 0.0001 -27.6856 2.9392 2.2916 42.3722 0.0000 0.0000 80.6933 -2.2956 -3.0078 17.2999 -0.0001 0.0000 21.4546 0.0031 -0.0001 0.1035 1.8579 -10.5485 170.5679 2.5674 -176.7645 43.5000 -0.0000 0.0000 -26.4207 3.8155 5.8150 42.3722 0.0000 0.0001 82.3847 -3.5142 3.5122 17.3000 -0.0001 0.0001 21.4546 -0.0031 0.0000 6.9019 -2.6037 0.0000 5.4772 0.2412 0.3966 12.5881 0.0000 -0.0001 0.9434 0.4744 0.7952 12.3432 -0.0001 0.0000 0.6253 0.4793 0.7923 25.8329 0.0001 0.0001 0.9662 6.3279 -2.4273 11.7667 -0.0000 -0.0000 14.9072 -14.1441 -0.3639 19.7459 -1.4803 6.0001 -64.7437 -84.2445 -117.5602 11.2841 -0.0001 -0.0000 -80.5413 46.9568 -88.3229 33.0000 0.0000 -0.0000 -17.4134 -9.3390 -2.3289 25.2001 0.0001 -0.0000 12.8595 1.5532 18.3587 19.7461 -1.4803 -6.0000 -82.6696 80.1309 99.9540 11.2842 -0.0000 -0.0001 -83.6346 -52.4521 93.8452 33.0001 0.0001 0.0001 -24.6614 13.7212 1.1048 25.1997 0.0001 0.0003 12.2982 10.3537 -7.4738
0.0000 88.7315 -0.0000 89.6202 1.8553 92.2144 0.1035 1.8578 10.5485 164.9255 -3.4080 173.0272 43.5000 0.0001 0.0001 -32.6042 3.7868 2.1629 42.3722 0.0000 0.0000 82.3000 -2.2758 -3.2253 17.2999 -0.0001 0.0000 21.4546 0.0031 -0.0001 0.1035 1.8579 -10.5485 167.1980 2.7003 -176.7678 43.5000 -0.0000 0.0000 -31.4103 3.6331 5.6596 42.3722 0.0000 0.0001 83.9687 -3.4339 3.7242 17.3000 -0.0001 0.0001 21.4546 -0.0031 0.0000 6.9019 -2.6037 0.0000 5.4772 0.2412 0.3966 12.5881 0.0000 -0.0001 0.9434 0.4744 0.7952 12.3432 -0.0001 0.0000 0.6253 0.4793 0.7923 25.8329 0.0001 0.0001 0.9662 6.3279 -2.4273 11.7667 -0.0000 -0.0000 14.9072 -14.1441 -0.3639 19.7459 -1.4803 6.0001 -64.7437 -84.2445 -117.5602 11.2841 -0.0001 -0.0000 -80.9416 45.5687 -88.9950 33.0000 0.0000 -0.0000 -18.0745 -9.2810 -2.5514 25.2001 0.0001 -0.0000 12.8595 1.5532 18.3587 19.7461 -1.4803 -6.0000 -82.6696 80.1309 99.9540 11.2842 -0.0000 -0.0001 -83.9887 -51.0169 94.3284 33.0001 0.0001 0.0001 -25.3302 13.6190 1.2703 25.1997 0.0001 0.0003 12.2982 10.3537 -7.4738
0.0000 85.1716 -0.0000 89.6198 3.1556 92.2058 0.1035 1.8578 10.5485 159.9460 -3.2134 173.0002 43.5000 0.0001 0.0001 -39.8884 5.0118 1.8400 42.3722 0.0000 0.0000 84.6748 -2.2354 -3.5457 17.2999 -0.0001 0.0000 21.4546 0.0031 -0.0001 0.1035 1.8579 -10.5485 162.2160 2.8957 -176.7870 43.5000 -0.0000 0.0000 -38.7829 3.3405 5.4605 42.3722 0.0000 0.0001 86.3105 -3.3259 4.0415 17.3000 -0.0001 0.0001 21.4546 -0.0031 0.0000 6.9019 -2.6037 0.0000 5.4772 0.2412 0.3966 12.5881 0.0000 -0.0001 0.9434 0.4744 0.7952 12.3432 -0.0001 0.0000 0.6253 0.4793 0.7923 25.8329 0.0001 0.0001 0.9662 6.3279 -2.4273 11.7667 -0.0000 -0.0000 14.9072 -14.1441 -0.3639 19.7459 -1.4803 6.0001 -64.7437 -84.2445 -117.5602 11.2841 -0.0001 -0.0000 -81.4750 43.5114 -89.9350 33.0000 0.0000 -0.0000 -19.0520 -9.2000 -2.8813 25.2001 0.0001 -0.0000 12.8595 1.5532 18.3587 19.7461 -1.4803 -6.0000 -82.6696 80.1309 99.9540 11.2842 -0.0000 -0.0001 -84.4594 -48.8924 94.9921 33.0001 0.0001 0.0001 -26.3189 13.4715 1.5170 25.1997 0.0001 0.0003 12.2982 10.3537 -7.4738
0.0000 80.8316 -0.0000 89.6191 4.7410 92.1952 0.1035 1.8578 10.5485 153.8765 -2.9806 172.9446 43.5000 0.0001 0.0001 -48.7988 6.4347 1.2383 42.3722 0.0000 0.0000 87.5695 -2.1683 -3.9336 17.2999 -0.0001 0.0000 21.4546 0.0031 -0.0001 0.1035 1.8579 -10.5485 156.1411 3.1306 -176.8334 43.5000 -0.0000 0.0000 -47.7667 2.9531 5.2711 42.3722 0.0000 0.0001 89.1659 -3.2120 4.4338 17.3000 -0.0001 0.0001 21.4546 -0.0031 0.0000 6.9019 -2.6037 0.0000 5.4772 0.2412 0.3966 12.5881 0.0000 -0.0001 0.9434 0.4744 0.7952 12.3432 -0.0001 0.0000 0.6253 0.4793 0.7923 25.8329 0.0001 0.0001 0.9662 6.3279 -2.4273 11.7667 -0.0000 -0.0000 14.9072 -14.1441 -0.3639 19.7459 -1.4803 6.0001 -64.7437 -84.2445 -117.5602 11.2841 -0.0001 -0.0000 -82.0416 40.9954 -91.0060 33.0000 0.0000 -0.0000 -20.2439 -9.1087 -3.2852 25.2001 0.0001 -0.0000 12.8595 1.5532 18.3587 19.7461 -1.4803 -6.0000 -82.6696 80.1309 99.9540 11.2842 -0.0000 -0.0001 -84.9599 -46.2980 95.7316 33.0001 0.0001 0.0001 -27.5243 13.2973 1.8210 25.1997 0.0001 0.0003 12.2982 10.3537 -7.4738
0.0000 76.0830 -0.0000 89.6179 6.4755 92.1836 0.1035 1.8578 10.5485 147.2367 -2.7341 172.8559 43.5000 0.0001 0.0001 -58.5954 7.8641 0.3320 42.3722 0.0000 0.0000 90.7359 -2.0725 -4.3535 17.2999 -0.0001 0.0000 21.4546 0.0031 -0.0001 0.1035 1.8579 -10.5485 149.4923 3.3804 -176.9123 43.5000 -0.0000 0.0000 -57.5914 2.5013 5.1362 42.3722 0.0000 0.0001 92.2906 -3.1098 4.8690 17.3000 -0.0001 0.0001 21.4546 -0.0031 0.0000 6.9019 -2.6037 0.0000 5.4772 0.2412 0.3966 12.5881 0.0000 -0.0001 0.9434 0.4744 0.7952 12.3432 -0.0001 0.0000 0.6253 0.4793 0.7923 25.8329 0.0001 0.0001 0.9662 6.3279 -2.4273 11.7667 -0.0000 -0.0000 14.9072 -14.1441 -0.3639 19.7459 -1.4803 6.0001 -64.7437 -84.2445 -117.5602 11.2841 -0.0001 -0.0000 -82.5698 38.2345 -92.0978 33.0000 0.0000 -0.0000 -21.5485 -9.0184 -3.7292 25.2001 0.0001 -0.0000 12.8595 1.5532 18.3587 19.7461 -1.4803 -6.0000 -82.6696 80.1309 99.9540 11.2842 -0.0000 -0.0001 -85.4294 -43.4548 96.4676 33.0001 0.0001 0.0001 -28.8432 13.1139 2.1577 25.1997 0.0001 0.0003 12.2982 10.3537 -7.4738
0.0000 71.2973 -0.0000 89.6164 8.2237 92.1718 0.1035 1.8578 10.5485 140.5458 -2.4977 172.7383 43.5000 0.0001 0.0001 -68.5252 9.1281 -0.8203 42.3722 0.0000 0.0000 93.9261 -1.9527 -4.7706 17.2999 -0.0001 0.0000 21.4546 0.0031 -0.0001 0.1035 1.8579 -10.5485 142.7895 3.6212 -177.0206 43.5000 -0.0000 0.0000 -67.4886 2.0293 5.0803 42.3722 0.0000 0.0001 95.4401 -3.0309 5.3124 17.3000 -0.0001 0.0001 21.4546 -0.0031 0.0000 6.9019 -2.6037 0.0000 5.4772 0.2412 0.3966 12.5881 0.0000 -0.0001 0.9434 0.4744 0.7952 12.3432 -0.0001 0.0000 0.6253 0.4793 0.7923 25.8329 0.0001 0.0001 0.9662 6.3279 -2.4273 11.7667 -0.0000 -0.0000 14.9072 -14.1441 -0.3639 19.7459 -1.4803 6.0001 -64.7437 -84.2445 -117.5602 11.2841 -0.0001 -0.0000 -83.0177 35.4448 -93.1272 33.0000 0.0000 -0.0000 -22.8636 -8.9375 -4.1785 25.2001 0.0001 -0.0000 12.8595 1.5532 18.3587 19.7461 -1.4803 -6.0000 -82.6696 80.1309 99.9540 11.2842 -0.0000 -0.0001 -85.8331 -40.5854 97.1457 33.0001 0.0001 0.0001 -30.1726 12.9367 2.5010 25.1997 0.0001 0.0003 12.2982 10.3537 -7.4738
0.0000 66.8458 -0.0000 89.6147 9.8497 92.1608 0.1035 1.8578 10.5485 134.3229 -2.2915 172.6048 43.5000 0.0001 0.0001 -77.8133 10.1106 -2.0796 42.3722 0.0000 0.0000 96.8924 -1.8206 -5.1520 17.2999 -0.0001 0.0000 21.4546 0.0031 -0.0001 0.1035 1.8579 -10.5485 136.5529 3.8325 -177.1461 43.5000 -0.0000 0.0000 -76.6918 1.5877 5.1020 42.3722 0.0000 0.0001 98.3699 -2.9796 5.7282 17.3000 -0.0001 0.0001 21.4546 -0.0031 0.0000 6.9019 -2.6037 0.0000 5.4772 0.2412 0.3966 12.5881 0.0000 -0.0001 0.9434 0.4744 0.7952 12.3432 -0.0001 0.0000 0.6253 0.4793 0.7923 25.8329 0.0001 0.0001 0.9662 6.3279 -2.4273 11.7667 -0.0000 -0.0000 14.9072 -14.1441 -0.3639 19.7459 -1.4803 6.0001 -64.7437 -84.2445 -117.5602 11.2841 -0.0001 -0.0000 -83.3676 32.8447 -94.0313 33.0000 0.0000 -0.0000 -24.0871 -8.8714 -4.5979 25.2001 0.0001 -0.0000 12.8595 1.5532 18.3587 19.7461 -1.4803 -6.0000 -82.6696 80.1309 99.9540 11.2842 -0.0000 -0.0001 -86.1554 -37.9136 97.7289 33.0001 0.0001 0.0001 -31.4093 12.7790 2.8238 25.1997 0.0001 0.0003 12.2982 10.3537 -7.4738
0.0000 63.1002 -0.0000 89.6130 11.2180 92.1514 0.1035 1.8578 10.5485 129.0870 -2.1300 172.4757 43.5000 0.0001 0.0001 -85.6646 10.7725 -3.2557 42.3722 0.0000 0.0000 99.3874 -1.6943 -5.4673 17.2999 -0.0001 0.0000 21.4546 0.0031 -0.0001 0.1035 1.8579 -10.5485 131.3036 3.9988 -177.2690 43.5000 -0.0000 0.0000 -84.4345 1.2228 5.1747 42.3722 0.0000 0.0001 100.8354 -2.9528 6.0798 17.3000 -0.0001 0.0001 21.4546 -0.0031 0.0000 6.9019 -2.6037 0.0000 5.4772 0.2412 0.3966 12.5881 0.0000 -0.0001 0.9434 0.4744 0.7952 12.3432 -0.0001 0.0000 0.6253 0.4793 0.7923 25.8329 0.0001 0.0001 0.9662 6.3279 -2.4273 11.7667 -0.0000 -0.0000 14.9072 -14.1441 -0.3639 19.7459 -1.4803 6.0001 -64.7437 -84.2445 -117.5602 11.2841 -0.0001 -0.0000 -83.6175 30.6537 -94.7582 33.0000 0.0000 -0.0000 -25.1168 -8.8227 -4.9518 25.2001 0.0001 -0.0000 12.8595 1.5532 18.3587 19.7461 -1.4803 -6.0000 -82.6696 80.1309 99.9540 11.2842 -0.0000 -0.0001 -86.3920 -35.6635 98.1898 33.0001 0.0001 0.0001 -32.4500 12.6515 3.0980 25.1997 0.0001 0.0003 12.2982 10.3537 -7.4738
